<?xml version="1.0" encoding="UTF-8"?><svg xmlns="http://www.w3.org/2000/svg" viewBox="0 0 512 512"><defs><style>.d{fill:#fff;}.e{fill:#1d1d1b;font-family:MontserratRoman-Regular, MontserratRoman Regular;font-size:66.58px;letter-spacing:.1em;}.f{fill:#010101;}</style></defs><g id="a"><rect class="d" width="512" height="512"/></g><g id="b"><path class="f" d="M130.28,143.11s.93,.55,.97,.59l123.87,123.87c1.18,1.18,3.1,1.18,4.28,0l124.04-124.04c.13-.13,.62-.43,.62-.42h0l.52-.27h0c29.39,31.24,47.39,73.3,47.39,119.57s-18.05,88.43-47.5,119.67c0,0,0,.02,0,.02l6.79,6.79s.02,0,.02,0c31.19-32.99,50.32-77.5,50.32-126.48s-19.08-93.39-50.21-126.37l.04-.04-7.38-7.38s-.02,0-.02,0l-7.35,7.62,.13-.1c-.11,.08-.22,.17-.32,.27l-116.7,116.7c-1.18,1.18-3.1,1.18-4.28,0l-116.91-116.91c-.2-.2-.42-.36-.66-.5h0l-7-7s-.02,0-.02,0l-7.32,7.32-.03-.03c-31.14,32.98-50.24,77.46-50.24,126.4s19.2,93.66,50.49,126.66c0,0,.02,0,.02,0l6.79-6.79s0-.02,0-.02c-29.55-31.26-47.67-73.44-47.67-119.85s17.94-88.17,47.23-119.38"/><path class="f" d="M377.16,135.77l6.81-6.81c-33-31.26-77.56-50.43-126.61-50.43-48.94,0-93.42,19.09-126.4,50.24l6.81,6.81c31.23-29.4,73.3-47.42,119.58-47.42,46.38,0,88.54,18.1,119.79,47.62Z"/><path class="f" d="M364.8,346.29l4.51,4.51c20.68-21.83,33.36-51.31,33.36-83.75,0-32.37-12.63-61.8-33.23-83.61l-4.51,4.51c19.45,20.66,31.37,48.49,31.37,79.11,0,30.68-11.97,58.57-31.5,79.24Z"/><path class="f" d="M149.76,346.21l-4.51,4.51c-20.68-21.83-33.36-51.31-33.36-83.75s12.63-61.8,33.23-83.61l4.51,4.51c-19.45,20.66-31.37,48.49-31.37,79.11,0,30.68,11.97,58.57,31.5,79.24Z"/><path class="f" d="M272.99,336.54c-.11-8.65-7.15-15.62-15.82-15.62-4.98,0-9.42,2.3-12.32,5.9,4.3,.7,9.38,2.01,14.71,3.87,5.1,1.78,9.71,3.82,13.43,5.86Z"/><path class="f" d="M241.35,337.04c.16,8.61,7.18,15.54,15.82,15.54,4.88,0,9.24-2.21,12.14-5.68-4.17-.72-9.02-1.99-14.1-3.76-5.3-1.85-10.07-3.98-13.87-6.1Z"/><path class="f" d="M255.88,341.24c-5.75-2.01-10.8-4.33-14.4-6.51-.08,.66-.13,1.33-.13,2.01,0,.1,0,.19,0,.29,3.79,2.12,8.56,4.25,13.87,6.1,5.08,1.77,9.93,3.04,14.1,3.76,.49-.59,.94-1.21,1.34-1.86-4.09-.58-9.28-1.87-14.78-3.79Z"/><path class="f" d="M259.29,331.47c5.38,1.88,10.15,4.04,13.69,6.09,.01-.27,.02-.54,.02-.81,0-.07,0-.14,0-.21-3.72-2.04-8.33-4.08-13.43-5.86-5.33-1.86-10.41-3.17-14.71-3.87-.22,.27-.42,.54-.62,.82,4.14,.56,9.43,1.87,15.06,3.83Z"/><path class="f" d="M244.23,327.64c-1.45,2.06-2.42,4.48-2.76,7.09,3.6,2.18,8.65,4.5,14.4,6.51,5.5,1.92,10.68,3.21,14.78,3.79,1.35-2.19,2.18-4.74,2.32-7.47-3.54-2.05-8.31-4.21-13.69-6.09-5.63-1.96-10.92-3.27-15.06-3.83Z"/><text class="e" transform="translate(90.61 463.6)"><tspan x="0" y="0">MERIDIAN</tspan></text><rect class="d" x="36.22" y="443.66" width="439.56" height="8.44"/></g><g id="c"><rect class="d" x="361.04" y="117.02" width="20.43" height="20.43" transform="translate(198.7 -225.25) rotate(45)"/><rect class="d" x="130.21" y="113.74" width="20.43" height="20.43" transform="translate(122.6 -62.5) rotate(43.1)"/></g></svg>